<svg width="14" height="14" viewBox="0 0 14 14" fill="none" xmlns="http://www.w3.org/2000/svg">
<path fill-rule="evenodd" clip-rule="evenodd" d="M2 6.96997C2 4.22997 4.23 2 7 2C9.77 2 12 4.22997 12 6.96997C12 7.98997 11.69 8.92997 11.17 9.71997C10.99 9.97997 10.9501 10.31 11.0601 10.61L11.5699 12H6.97998C4.22998 12 2 9.72997 2 6.96997ZM7 0C3.14 0 0 3.11997 0 6.96997C0 10.81 3.09998 14 6.97998 14H13C13.33 14 13.6299 13.8399 13.8199 13.5699C14.0099 13.2999 14.0499 12.96 13.9399 12.66L13.11 10.38C13.67 9.37 14 8.20997 14 6.96997C14 3.11997 10.86 0 7 0Z" fill="black"/>
</svg>
